HIERARCHY
ROOT Hips
{
	OFFSET -0.001795 -0.223333 0.028219
	CHANNELS 6 Xposition Yposition Zposition Zrotation Yrotation Xrotation 
	JOINT LeftUpLeg
	{
		OFFSET 0.069520 -0.091406 -0.006815
		CHANNELS 3 Zrotation Yrotation Xrotation
		JOINT LeftLeg
		{
			OFFSET 0.034277 -0.375199 -0.004496
			CHANNELS 3 Zrotation Yrotation Xrotation
			JOINT LeftFoot
			{
				OFFSET -0.013596 -0.397961 -0.043693
				CHANNELS 3 Zrotation Yrotation Xrotation
				JOINT LeftToe
				{
					OFFSET 0.026358 -0.055791 0.119288
					CHANNELS 3 Zrotation Yrotation Xrotation
					End Site
					{
						OFFSET 0.000000 0.000000 0.000000
					}
				}
			}
		}
	}
	JOINT RightUpLeg
	{
		OFFSET -0.067670 -0.090522 -0.004320
		CHANNELS 3 Zrotation Yrotation Xrotation
		JOINT RightLeg
		{
			OFFSET -0.038290 -0.382569 -0.008850
			CHANNELS 3 Zrotation Yrotation Xrotation
			JOINT RightFoot
			{
				OFFSET 0.015774 -0.398415 -0.042312
				CHANNELS 3 Zrotation Yrotation Xrotation
				JOINT RightToe
				{
					OFFSET -0.025372 -0.048144 0.123348
					CHANNELS 3 Zrotation Yrotation Xrotation
					End Site
					{
						OFFSET 0.000000 0.000000 0.000000
					}
				}
			}
		}
	}
	JOINT Spine
	{
		OFFSET -0.002533 0.108963 -0.026696
		CHANNELS 3 Zrotation Yrotation Xrotation
		JOINT Spine1
		{
			OFFSET 0.005487 0.135180 0.001092
			CHANNELS 3 Zrotation Yrotation Xrotation
			JOINT Spine2
			{
				OFFSET 0.001457 0.052922 0.025425
				CHANNELS 3 Zrotation Yrotation Xrotation
				JOINT Neck
				{
					OFFSET -0.002778 0.213870 -0.042857
					CHANNELS 3 Zrotation Yrotation Xrotation
					JOINT Head
					{
						OFFSET 0.005152 0.064970 0.051349
						CHANNELS 3 Zrotation Yrotation Xrotation
						End Site
						{
							OFFSET 0.000000 0.000000 0.000000
						}
					}
				}
				JOINT LeftShoulder
				{
					OFFSET 0.078845 0.121749 -0.034090
					CHANNELS 3 Zrotation Yrotation Xrotation
					JOINT LeftArm
					{
						OFFSET 0.090977 0.030469 -0.008868
						CHANNELS 3 Zrotation Yrotation Xrotation
						JOINT LeftForeArm
						{
							OFFSET 0.259612 -0.012772 -0.027456
							CHANNELS 3 Zrotation Yrotation Xrotation
							JOINT LeftHand
							{
								OFFSET 0.249234 0.008986 -0.001171
								CHANNELS 3 Zrotation Yrotation Xrotation
								End Site
								{
									OFFSET 0.000000 0.000000 0.000000
								}
							}
						}
					}
				}
				JOINT RightShoulder
				{
					OFFSET -0.081759 0.118833 -0.038615
					CHANNELS 3 Zrotation Yrotation Xrotation
					JOINT RightArm
					{
						OFFSET -0.096012 0.032551 -0.009143
						CHANNELS 3 Zrotation Yrotation Xrotation
						JOINT RightForeArm
						{
							OFFSET -0.253742 -0.013329 -0.021401
							CHANNELS 3 Zrotation Yrotation Xrotation
							JOINT RightHand
							{
								OFFSET -0.255298 0.007772 -0.005559
								CHANNELS 3 Zrotation Yrotation Xrotation
								End Site
								{
									OFFSET 0.000000 0.000000 0.000000
								}
							}
						}
					}
				}
			}
		}
	}
}
MOTION
Frames: 12
Frame Time: 0.050000
0.000000 0.950015 0.000000 -0.403197 13.737305 0.401933 0.907990 0.237177 4.215560 -2.941444 0.230164 -0.315553 2.409305 6.074920 2.545664 0.000000 0.000000 0.000000 -1.961200 1.235999 -21.063159 6.638104 -2.291726 22.487796 -7.545262 -18.130946 4.509165 0.000000 0.000000 0.000000 -3.150469 -0.316441 11.990336 5.065125 -0.574242 -20.611450 -2.889824 -9.483820 27.190562 -1.007232 1.831001 -24.866789 0.000000 0.000000 0.000000 -20.927708 -6.176799 2.549727 -47.419809 -17.479528 -1.238314 -20.390028 -42.785290 10.704741 0.000000 0.000000 0.000000 10.950758 11.166498 4.514615 54.477447 6.928879 -4.573389 20.249120 49.035672 11.734916 0.000000 0.000000 0.000000 
0.000388 0.947537 0.017595 -0.170492 13.413580 1.931034 0.534112 0.318676 5.026953 -2.798256 0.240594 -2.720649 3.788327 8.528811 2.419395 0.000000 0.000000 0.000000 -1.684364 1.366565 -22.924712 7.189513 -2.267446 20.580207 -8.952379 -21.156553 4.643818 0.000000 0.000000 0.000000 -3.143231 -0.245567 10.755517 5.622003 -0.668309 -21.689916 -3.718287 -10.415164 27.810091 -0.879180 1.727347 -28.142549 0.000000 0.000000 0.000000 -19.129713 -6.650780 3.091248 -48.360997 -20.428066 -0.076417 -21.786856 -45.936464 12.462658 0.000000 0.000000 0.000000 11.433387 10.316099 3.980111 54.061973 6.646303 -4.705531 24.351267 48.777768 13.382054 0.000000 0.000000 0.000000 
0.000226 0.945484 0.039111 -0.410918 13.221518 2.226717 0.850166 0.320730 5.519640 -1.945641 0.195295 -2.584459 3.883963 8.763347 2.596622 0.000000 0.000000 0.000000 -0.661131 1.569846 -22.413119 6.358422 -1.822833 18.711097 -9.097877 -21.007212 7.639856 0.000000 0.000000 0.000000 -2.202247 -0.313004 10.303165 5.780647 -0.677594 -22.251875 -4.085600 -10.311406 27.895637 -1.264071 1.925832 -27.662939 0.000000 0.000000 0.000000 -19.341266 -7.716605 3.700059 -48.877723 -23.601887 1.277893 -24.088663 -46.662173 13.818842 0.000000 0.000000 0.000000 10.712389 8.588029 3.170312 55.744086 5.001456 -5.555025 27.142583 50.259173 15.301827 0.000000 0.000000 0.000000 
-0.000880 0.944047 0.064239 -0.501218 13.126655 2.181023 0.821594 0.389992 6.717231 -1.220778 0.125104 -1.142408 4.920253 9.991710 0.955655 0.000000 0.000000 0.000000 0.004109 1.663083 -21.533433 6.281508 -1.819368 19.011449 -9.620934 -21.706827 9.872012 0.000000 0.000000 0.000000 -1.686642 -0.321583 9.488097 5.850476 -0.694365 -22.282608 -4.317817 -12.270568 28.304405 -2.045988 2.033738 -27.963570 0.000000 0.000000 0.000000 -20.018024 -7.628282 4.246886 -49.428508 -24.423145 1.554460 -28.921155 -48.693486 17.320402 0.000000 0.000000 0.000000 10.155821 8.445988 2.793559 55.129121 4.734243 -5.691404 30.026983 52.443475 17.097786 0.000000 0.000000 0.000000 
-0.003005 0.944021 0.092597 -0.568101 12.630279 2.401655 1.242814 0.388890 7.415544 -1.502756 0.084689 1.442176 5.553290 11.105619 0.810835 0.000000 0.000000 0.000000 0.997656 1.770598 -19.962373 5.875884 -1.609649 18.244583 -10.219484 -22.864165 10.275110 0.000000 0.000000 0.000000 -0.788797 -0.377095 9.051689 5.963868 -0.741030 -22.159987 -4.676683 -12.879342 27.691683 -2.195924 1.939868 -27.042924 0.000000 0.000000 0.000000 -20.517241 -8.076541 4.793820 -48.869116 -25.527691 1.935741 -32.438562 -50.297100 20.014332 0.000000 0.000000 0.000000 11.390815 7.628206 2.218345 54.545885 3.526635 -6.082610 31.688920 54.475219 18.493006 0.000000 0.000000 0.000000 
-0.006230 0.945617 0.122391 -0.243405 10.978188 2.500533 1.470286 0.307975 5.839437 -2.586296 0.048700 7.455056 6.271970 12.636255 1.076836 0.000000 0.000000 0.000000 1.536313 1.761684 -17.950135 5.853333 -1.526901 18.669154 -9.362718 -21.740109 8.215486 0.000000 0.000000 0.000000 -0.923855 -0.304133 8.065565 6.897145 -1.124579 -20.835810 -4.747683 -13.830006 26.393077 -3.364565 2.298807 -27.032602 0.000000 0.000000 0.000000 -20.847783 -6.748647 4.596229 -49.614139 -24.844589 1.761201 -40.807799 -51.274188 25.590776 0.000000 0.000000 0.000000 11.045396 8.544935 2.263447 53.742398 3.263060 -5.961648 33.741559 55.356961 19.263392 0.000000 0.000000 0.000000 
-0.010340 0.948143 0.151614 0.075848 8.535549 2.675490 2.671329 -0.021850 1.185386 -5.249156 0.348317 18.202773 7.081710 14.692285 2.547317 0.000000 0.000000 0.000000 2.619520 1.810958 -16.303937 4.544223 -1.002907 19.346391 -7.942839 -19.282043 5.933744 0.000000 0.000000 0.000000 -1.146821 -0.214635 6.698791 7.471490 -1.434244 -19.621684 -4.159982 -12.752799 25.313852 -4.498331 2.886903 -26.278279 0.000000 0.000000 0.000000 -21.551549 -6.078002 4.386097 -48.975155 -23.307685 1.038031 -49.359518 -51.897391 31.162407 0.000000 0.000000 0.000000 10.417253 8.499300 2.182223 52.570964 2.987684 -5.867565 36.376827 56.082717 20.758075 0.000000 0.000000 0.000000 
-0.014494 0.951097 0.179603 0.186816 6.794908 1.998139 4.552149 -0.378023 -4.746629 -8.990861 1.550845 31.019209 7.878945 16.793038 5.972097 0.000000 0.000000 0.000000 3.488288 1.559512 -12.885115 4.033460 -0.715053 18.205969 -6.924147 -17.288769 3.793795 0.000000 0.000000 0.000000 -1.134861 -0.223458 7.001883 8.072816 -1.591647 -20.241277 -4.279118 -12.163622 25.456655 -4.922982 3.056667 -27.270417 0.000000 0.000000 0.000000 -22.387662 -5.144135 4.109662 -48.268493 -22.156702 0.332374 -55.402389 -52.758130 35.875534 0.000000 0.000000 0.000000 9.012700 9.073114 2.450225 51.407244 3.200456 -5.703461 42.551743 58.007383 25.000546 0.000000 0.000000 0.000000 
-0.017816 0.953783 0.206865 0.690985 4.396175 0.937739 5.438216 -0.623082 -10.782331 -11.492915 3.265460 40.200901 8.449971 17.747314 5.283833 0.000000 0.000000 0.000000 4.158783 1.105264 -8.750749 2.686339 -0.202032 16.497685 -5.866627 -14.948227 2.855940 0.000000 0.000000 0.000000 -1.475547 -0.233008 8.194120 7.277274 -1.298292 -21.652951 -3.687565 -9.762787 26.756636 -2.783973 1.985261 -26.786691 0.000000 0.000000 0.000000 -22.076763 -5.324634 3.973577 -47.215587 -21.309901 -0.154422 -62.488602 -53.904057 41.327309 0.000000 0.000000 0.000000 8.992944 8.340306 2.288416 49.335291 3.769034 -5.386989 46.916416 59.565381 28.808632 0.000000 0.000000 0.000000 
-0.020135 0.958047 0.234778 1.444110 1.500422 0.845013 4.599289 -0.925271 -15.987859 -11.303546 3.911438 41.635292 9.262728 19.110938 4.361377 0.000000 0.000000 0.000000 3.623140 0.679563 -5.791845 1.795044 0.109522 14.261879 -4.770698 -12.304371 1.818418 0.000000 0.000000 0.000000 -2.388023 -0.130764 7.739045 7.369584 -1.411421 -21.182323 -3.222073 -7.806199 26.461423 -2.195304 1.676313 -25.845252 0.000000 0.000000 0.000000 -22.551282 -4.938540 3.753585 -46.179447 -19.463999 -0.954004 -70.368826 -54.924866 47.867809 0.000000 0.000000 0.000000 8.274506 8.603978 2.449251 48.038184 4.386414 -5.001375 56.011495 61.775040 36.152261 0.000000 0.000000 0.000000 
-0.021653 0.961615 0.263769 1.546227 -2.102025 0.629250 4.273418 -1.065217 -20.031521 -9.805548 3.573842 36.972283 9.543496 19.541672 4.586721 0.000000 0.000000 0.000000 3.693012 0.208293 -2.370174 0.837868 0.352818 12.113043 -2.995958 -8.026196 1.487973 0.000000 0.000000 0.000000 -2.550131 -0.100299 7.775969 6.471565 -1.233463 -21.150107 -1.984242 -5.613154 26.475685 -1.834902 1.491346 -25.998920 0.000000 0.000000 0.000000 -22.216130 -3.794547 3.095433 -45.793531 -17.189541 -1.845918 -78.953875 -54.198434 54.067405 0.000000 0.000000 0.000000 7.265949 8.525350 2.458961 46.621108 5.391717 -4.517720 67.567523 62.247175 44.613181 0.000000 0.000000 0.000000 
-0.022470 0.962890 0.294727 1.503818 -5.561432 0.280238 3.777774 -1.069840 -21.591431 -7.651235 2.433613 27.515247 8.971434 18.396978 5.958589 0.000000 0.000000 0.000000 3.255368 -0.201834 0.800340 0.339534 0.447541 10.675412 -1.426068 -3.987112 0.842937 0.000000 0.000000 0.000000 -2.673479 -0.067746 7.070732 6.227587 -1.325390 -20.102536 -1.205338 -4.539608 26.809412 -2.365173 1.642750 -25.985420 0.000000 0.000000 0.000000 -22.871640 -2.057483 2.461492 -45.003689 -15.357080 -2.703671 -85.158194 -53.712482 59.289825 0.000000 0.000000 0.000000 6.612442 8.844833 2.502236 45.576430 6.372793 -4.108924 78.629987 62.080269 52.351792 0.000000 0.000000 0.000000 
